# xmcd
#
# Track frame offsets:
#   150
#   14253
#   28353
#   42323
#   59758
#   73211
#   85880
#   99638
#   114700
#   126896
#
# Disc length: 1858 seconds
#
# Revision: 0
# Processed by: cddbd v1.5.2PL0 Copyright (c) Steve Scherf et al.
# Submitted via: uFREEDB 1.6.0
#
DISCID=9407400a
DTITLE=Williams, Don - Listen To The Radio
DYEAR=1900
DGENRE=country
TTITLE0=Listen To The Radio
TTITLE1=If Hollywood Don't Need You
TTITLE2=Don't Stop Loving Me Now
TTITLE3=Only Love
TTITLE4=Fool Fool Heart
TTITLE5=Mistakes
TTITLE6=I Can't Get To You From Here
TTITLE7=Standing In A Sea Of Teardrops
TTITLE8=If She Just Helps Me Get Over You
TTITLE9=Help Yourselves To Each Other
EXTD=
EXTT0=
EXTT1=
EXTT2=
EXTT3=
EXTT4=
EXTT5=
EXTT6=
EXTT7=
EXTT8=
EXTT9=
PLAYORDER=
